<?xml version="1.0" encoding="UTF-8"?>
<svg id="Warstwa_1" data-name="Warstwa 1" xmlns="http://www.w3.org/2000/svg" xmlns:xlink="http://www.w3.org/1999/xlink" viewBox="0 0 1084 741">
  <defs>
    <style>
      .cls-1 {
        fill: #fff;
        filter: url(#outer-glow-1);
      }
    </style>
    <filter id="outer-glow-1" x="133" y="81" width="829" height="596" filterUnits="userSpaceOnUse">
      <feOffset dx="0" dy="0"/>
      <feGaussianBlur result="blur" stdDeviation="5"/>
      <feFlood flood-color="#000" flood-opacity=".75"/>
      <feComposite in2="blur" operator="in"/>
      <feComposite in="SourceGraphic"/>
    </filter>
  </defs>
  <path class="cls-1" d="M773.45,661.21l-247.67-.99-249.06-2.01c-26.86-.22-52.55-1.02-79.07-3.03-17.13-1.3-40.2-3.16-46.51-21.03-7.93-22.44,4.78-41.61,19.11-58.03s29.48-31.95,45.43-47.48l88.13-85.74c13.65-13.28,26.23-26.42,37.86-41.22,14.5-18.45,12.69-37.75,7.95-59.95-2.93-13.74-9.02-25.48-18.45-35.98-14.35-15.98-29.47-30.13-45.32-44.86l-70.27-65.31c-11.16-10.37-21.06-20.88-29.91-33.08-6.19-8.54-10.42-17.96-11.41-28.36-1.25-13.24,5.76-24.19,18.07-28.66,23.88-8.68,72.26-7.58,99.68-7.95l89.14-1.19,344.73-.24,136.96.15c20.11.02,55.21.26,71.91,9.06,9.19,4.84,13.52,14.41,10.96,24.52-3.97,15.67-24.94,39.89-36.52,51.51l-59.85,60.03c-25.59,25.67-64.16,60.96-83.4,90.68-16.6,25.65-13.14,60.88,3.2,85.69,9.84,14.93,20.17,28.58,31.25,42.78l57.38,73.5c12.39,15.88,24.05,31.11,35.24,47.73,12.18,18.1,22.32,36.4,14.03,58.31-6.85,18.1-24.48,21.26-42.36,21.24l-91.26-.09ZM721.91,646.75l132.95.51c10.92.04,31.55.51,37-8.56,9.63-16.03.25-32.47-8.96-46.44-8.96-13.58-18.16-25.98-28.24-38.91l-66.05-84.78c-11.24-14.42-21.65-28.24-31.59-43.37s-14.77-31.14-15.92-49.19c-1.24-19.55,3.29-37.62,14.3-53.82,19.96-29.37,52.24-59.53,77.81-85l61.07-60.83c11-10.96,32.42-34.86,37.46-48.84,1.66-4.6-.11-8.17-4.4-10.12-14.76-6.72-49.91-6.91-67.41-6.91l-105.82-.04-27.71.86-408.22.26-84.93,1.6c-11.95.23-23.39,1.59-34.52,5.07-7.93,2.47-11.77,8.67-10.08,16.98,1.96,9.63,7.2,17.85,13.65,25.52,12.91,15.35,27.03,28.62,41.83,42.27l52.47,48.4c15.1,13.93,29.52,27.41,43.24,42.65,7.35,8.17,13.73,16.66,18.01,26.84,6.42,15.26,9.02,31.52,9.31,48.04.25,14.54-4.05,27.42-12.4,39-7.31,10.13-15.06,19.05-24,27.91l-51.7,51.26-73.18,71.75c-12.59,12.35-24.12,24.58-34.31,38.75-6.03,8.38-9.89,17.44-8.21,27.61,1,6.1,4.1,10.1,10.11,11.77,18.86,5.26,67.64,6.5,89.25,6.71l205.72,2.03,253.48,1.02Z"/>
  <rect x="558" y="96.11" width="6.86" height="15.14"/>
</svg>